<svg width="20" height="24" viewBox="0 0 20 24" fill="none" xmlns="http://www.w3.org/2000/svg">
<g clip-path="url(#clip0)">
<rect width="20" height="24" fill="white"/>
<path d="M13.768 10.648C13.368 10.232 12.944 9.92 12.496 9.712C12.064 9.488 11.544 9.376 10.936 9.376C10.344 9.376 9.824 9.488 9.376 9.712C8.944 9.92 8.576 10.216 8.272 10.6C7.984 10.968 7.76 11.4 7.6 11.896C7.456 12.376 7.384 12.88 7.384 13.408C7.384 13.936 7.472 14.44 7.648 14.92C7.824 15.384 8.072 15.792 8.392 16.144C8.712 16.496 9.096 16.776 9.544 16.984C9.992 17.176 10.496 17.272 11.056 17.272C11.664 17.272 12.184 17.168 12.616 16.96C13.048 16.736 13.448 16.416 13.816 16L15.352 17.536C14.792 18.16 14.136 18.608 13.384 18.88C12.648 19.152 11.864 19.288 11.032 19.288C10.152 19.288 9.344 19.144 8.608 18.856C7.888 18.568 7.264 18.168 6.736 17.656C6.208 17.128 5.8 16.504 5.512 15.784C5.224 15.048 5.08 14.24 5.08 13.36C5.08 12.48 5.224 11.672 5.512 10.936C5.8 10.2 6.2 9.568 6.712 9.04C7.24 8.512 7.864 8.104 8.584 7.816C9.32 7.512 10.136 7.36 11.032 7.36C11.864 7.36 12.656 7.512 13.408 7.816C14.176 8.104 14.84 8.552 15.4 9.16L13.768 10.648Z" fill="black"/>
<line x1="10.75" y1="5" x2="10.75" y2="22" stroke="black" stroke-width="1.5"/>
</g>
<defs>
<clipPath id="clip0">
<rect width="20" height="24" fill="white"/>
</clipPath>
</defs>
</svg>
